<?xml version="1.0" encoding="UTF-8"?>
<svg xmlns="http://www.w3.org/2000/svg" width="1080" height="1440" viewBox="0 0 1080 1440" fill="none">
  <metadata>{&quot;id&quot;:&quot;bright_spring&quot;,&quot;title&quot;:&quot;净春&quot;,&quot;group&quot;:&quot;spring&quot;,&quot;generatedFrom&quot;:&quot;color_seasons.json&quot;}</metadata>
  <g id="color-ring" shape-rendering="geometricPrecision">
    <path d="M 540.00 -382.00 A 900 1120 0 0 1 990.00 -231.95 L 697.50 365.61 A 315 430 0 0 0 540.00 308.00 Z" fill="#FF6B6B" stroke="#ffffff" stroke-width="5" stroke-linejoin="round"><title>珊瑚红</title></path>
    <path d="M 990.00 -231.95 A 900 1120 0 0 1 1319.42 178.00 L 812.80 523.00 A 315 430 0 0 0 697.50 365.61 Z" fill="#FFB347" stroke="#ffffff" stroke-width="5" stroke-linejoin="round"><title>暖桃粉</title></path>
    <path d="M 1319.42 178.00 A 900 1120 0 0 1 1440.00 738.00 L 855.00 738.00 A 315 430 0 0 0 812.80 523.00 Z" fill="#7BC67E" stroke="#ffffff" stroke-width="5" stroke-linejoin="round"><title>鹦鹉绿</title></path>
    <path d="M 1440.00 738.00 A 900 1120 0 0 1 1319.42 1298.00 L 812.80 953.00 A 315 430 0 0 0 855.00 738.00 Z" fill="#87CEEB" stroke="#ffffff" stroke-width="5" stroke-linejoin="round"><title>晴空蓝</title></path>
    <path d="M 1319.42 1298.00 A 900 1120 0 0 1 990.00 1707.95 L 697.50 1110.39 A 315 430 0 0 0 812.80 953.00 Z" fill="#FFD700" stroke="#ffffff" stroke-width="5" stroke-linejoin="round"><title>向日葵黄</title></path>
    <path d="M 990.00 1707.95 A 900 1120 0 0 1 540.00 1858.00 L 540.00 1168.00 A 315 430 0 0 0 697.50 1110.39 Z" fill="#FFFFF0" stroke="#ffffff" stroke-width="5" stroke-linejoin="round"><title>象牙白</title></path>
    <path d="M 540.00 1858.00 A 900 1120 0 0 1 90.00 1707.95 L 382.50 1110.39 A 315 430 0 0 0 540.00 1168.00 Z" fill="#FF8C42" stroke="#ffffff" stroke-width="5" stroke-linejoin="round"><title>暖橙</title></path>
    <path d="M 90.00 1707.95 A 900 1120 0 0 1 -239.42 1298.00 L 267.20 953.00 A 315 430 0 0 0 382.50 1110.39 Z" fill="#90EE90" stroke="#ffffff" stroke-width="5" stroke-linejoin="round"><title>草地绿</title></path>
    <path d="M -239.42 1298.00 A 900 1120 0 0 1 -360.00 738.00 L 225.00 738.00 A 315 430 0 0 0 267.20 953.00 Z" fill="#ff8f59" stroke="#ffffff" stroke-width="5" stroke-linejoin="round"><title>珊瑚红/暖桃粉</title></path>
    <path d="M -360.00 738.00 A 900 1120 0 0 1 -239.42 178.00 L 267.20 523.00 A 315 430 0 0 0 225.00 738.00 Z" fill="#81cab5" stroke="#ffffff" stroke-width="5" stroke-linejoin="round"><title>鹦鹉绿/晴空蓝</title></path>
    <path d="M -239.42 178.00 A 900 1120 0 0 1 90.00 -231.95 L 382.50 365.61 A 315 430 0 0 0 267.20 523.00 Z" fill="#ffeb78" stroke="#ffffff" stroke-width="5" stroke-linejoin="round"><title>向日葵黄/象牙白</title></path>
    <path d="M 90.00 -231.95 A 900 1120 0 0 1 540.00 -382.00 L 540.00 308.00 A 315 430 0 0 0 382.50 365.61 Z" fill="#c8bd69" stroke="#ffffff" stroke-width="5" stroke-linejoin="round"><title>暖橙/草地绿</title></path>
  </g>
  <ellipse cx="540" cy="738" rx="315" ry="430" fill="transparent" stroke="rgba(255,255,255,0.94)" stroke-width="14"/>
  <ellipse cx="540" cy="738" rx="329" ry="444" fill="transparent" stroke="rgba(30,30,30,0.16)" stroke-width="2"/>
</svg>
